<svg width="143" height="37" viewBox="0 0 143 37" fill="none" xmlns="http://www.w3.org/2000/svg">
<circle cx="21" cy="18" r="16" fill="#2F80ED"/>
<path d="M28.8749 9C21.2511 9 14.9804 14.865 14.3159 22.3185C15.5826 20.532 17.1344 18.813 19.0716 16.8368C19.2156 16.6883 19.4541 16.6853 19.6019 16.8315C19.7496 16.9763 19.7519 17.214 19.6071 17.3618C19.3154 17.6588 19.0191 17.967 18.7214 18.279C18.5511 18.4568 18.3846 18.6338 18.2211 18.8078C18.1911 18.84 18.1611 18.8723 18.1311 18.9053C15.7371 21.4688 14.0256 23.7 12.7828 26.4713C12.6981 26.6602 12.7828 26.8823 12.9711 26.967C13.0213 26.9895 13.0731 27 13.1248 27C13.2681 27 13.4054 26.9175 13.4676 26.7788C13.9101 25.7925 14.4238 24.8775 15.0013 23.9872C20.2393 23.853 25.0071 20.9392 27.5061 16.3028C27.5684 16.1865 27.5653 16.0463 27.4978 15.9323C27.4296 15.8198 27.3073 15.75 27.1754 15.75H25.7864L28.2771 14.3265C28.3559 14.2815 28.4166 14.2087 28.4459 14.1233C28.9799 12.5707 29.2499 10.9732 29.2499 9.37501C29.2499 9.16801 29.0819 9 28.8749 9Z" fill="white"/>
<path d="M43.62 15.766V12.328H46.806V15.766H48.75V18.196H46.806V21.13C46.806 21.982 47.046 22.408 47.526 22.408C47.646 22.408 47.772 22.384 47.904 22.336C48.036 22.288 48.138 22.24 48.21 22.192L48.318 22.12L49.11 24.694C48.426 25.078 47.646 25.27 46.77 25.27C46.17 25.27 45.654 25.168 45.222 24.964C44.79 24.748 44.46 24.466 44.232 24.118C44.016 23.758 43.86 23.386 43.764 23.002C43.668 22.606 43.62 22.186 43.62 21.742V18.196H42.288V15.766H43.62ZM50.1816 25V9.52H53.3676V16.738H53.4036C54.2316 15.91 55.1136 15.496 56.0496 15.496C56.5056 15.496 56.9556 15.556 57.3996 15.676C57.8556 15.796 58.2876 15.982 58.6956 16.234C59.1156 16.486 59.4516 16.846 59.7036 17.314C59.9676 17.77 60.0996 18.304 60.0996 18.916V25H56.9136V19.78C56.9136 19.3 56.7576 18.88 56.4456 18.52C56.1456 18.16 55.7496 17.98 55.2576 17.98C54.7776 17.98 54.3396 18.166 53.9436 18.538C53.5596 18.91 53.3676 19.324 53.3676 19.78V25H50.1816ZM71.424 20.824H64.728C64.728 21.472 64.938 21.952 65.358 22.264C65.778 22.576 66.234 22.732 66.726 22.732C67.242 22.732 67.65 22.666 67.95 22.534C68.25 22.39 68.592 22.114 68.976 21.706L71.28 22.858C70.32 24.466 68.724 25.27 66.492 25.27C65.1 25.27 63.906 24.796 62.91 23.848C61.914 22.888 61.416 21.736 61.416 20.392C61.416 19.048 61.914 17.896 62.91 16.936C63.906 15.976 65.1 15.496 66.492 15.496C67.956 15.496 69.144 15.922 70.056 16.774C70.98 17.614 71.442 18.82 71.442 20.392C71.442 20.608 71.436 20.752 71.424 20.824ZM64.818 19.06H68.328C68.256 18.58 68.064 18.214 67.752 17.962C67.452 17.698 67.062 17.566 66.582 17.566C66.054 17.566 65.634 17.704 65.322 17.98C65.01 18.256 64.842 18.616 64.818 19.06ZM81.8635 15.496C82.3915 15.496 82.9135 15.556 83.4295 15.676C83.9455 15.796 84.3295 15.916 84.5815 16.036L84.9595 16.216L83.9155 18.304C83.1955 17.92 82.5115 17.728 81.8635 17.728C81.5035 17.728 81.2455 17.77 81.0895 17.854C80.9455 17.926 80.8735 18.07 80.8735 18.286C80.8735 18.334 80.8795 18.382 80.8915 18.43C80.9035 18.478 80.9275 18.526 80.9635 18.574C80.9995 18.61 81.0295 18.646 81.0535 18.682C81.0895 18.706 81.1435 18.736 81.2155 18.772C81.2875 18.808 81.3415 18.838 81.3775 18.862C81.4255 18.874 81.4975 18.898 81.5935 18.934C81.6895 18.97 81.7615 19 81.8095 19.024C81.8575 19.036 81.9355 19.06 82.0435 19.096C82.1635 19.132 82.2535 19.156 82.3135 19.168C82.6855 19.276 83.0095 19.396 83.2855 19.528C83.5615 19.66 83.8495 19.84 84.1495 20.068C84.4615 20.296 84.7015 20.584 84.8695 20.932C85.0375 21.28 85.1215 21.676 85.1215 22.12C85.1215 24.22 83.6635 25.27 80.7475 25.27C80.0875 25.27 79.4575 25.168 78.8575 24.964C78.2695 24.76 77.8435 24.556 77.5795 24.352L77.1835 24.028L78.4795 21.85C78.5755 21.934 78.7015 22.036 78.8575 22.156C79.0135 22.264 79.2955 22.42 79.7035 22.624C80.1115 22.816 80.4655 22.912 80.7655 22.912C81.4255 22.912 81.7555 22.69 81.7555 22.246C81.7555 22.042 81.6715 21.886 81.5035 21.778C81.3355 21.658 81.0475 21.526 80.6395 21.382C80.2435 21.238 79.9315 21.106 79.7035 20.986C79.1275 20.686 78.6715 20.35 78.3355 19.978C77.9995 19.594 77.8315 19.09 77.8315 18.466C77.8315 17.53 78.1915 16.804 78.9115 16.288C79.6435 15.76 80.6275 15.496 81.8635 15.496ZM92.1405 25V9.52H95.3265V25H92.1405ZM106.826 20.824H100.13C100.13 21.472 100.34 21.952 100.76 22.264C101.18 22.576 101.636 22.732 102.128 22.732C102.644 22.732 103.052 22.666 103.352 22.534C103.652 22.39 103.994 22.114 104.378 21.706L106.682 22.858C105.722 24.466 104.126 25.27 101.894 25.27C100.502 25.27 99.3083 24.796 98.3123 23.848C97.3163 22.888 96.8183 21.736 96.8183 20.392C96.8183 19.048 97.3163 17.896 98.3123 16.936C99.3083 15.976 100.502 15.496 101.894 15.496C103.358 15.496 104.546 15.922 105.458 16.774C106.382 17.614 106.844 18.82 106.844 20.392C106.844 20.608 106.838 20.752 106.826 20.824ZM100.22 19.06H103.73C103.658 18.58 103.466 18.214 103.154 17.962C102.854 17.698 102.464 17.566 101.984 17.566C101.456 17.566 101.036 17.704 100.724 17.98C100.412 18.256 100.244 18.616 100.22 19.06ZM108.295 25V15.766H111.481V16.738H111.517C112.345 15.91 113.227 15.496 114.163 15.496C114.619 15.496 115.069 15.556 115.513 15.676C115.969 15.796 116.401 15.982 116.809 16.234C117.229 16.486 117.565 16.846 117.817 17.314C118.081 17.77 118.213 18.304 118.213 18.916V25H115.027V19.78C115.027 19.3 114.871 18.88 114.559 18.52C114.259 18.16 113.863 17.98 113.371 17.98C112.891 17.98 112.453 18.166 112.057 18.538C111.673 18.91 111.481 19.324 111.481 19.78V25H108.295ZM125.109 18.106C124.509 18.106 123.993 18.328 123.561 18.772C123.129 19.216 122.913 19.75 122.913 20.374C122.913 21.01 123.129 21.55 123.561 21.994C123.993 22.438 124.509 22.66 125.109 22.66C125.397 22.66 125.667 22.624 125.919 22.552C126.183 22.48 126.375 22.408 126.495 22.336L126.657 22.228L127.737 24.442C127.653 24.502 127.533 24.58 127.377 24.676C127.233 24.76 126.891 24.88 126.351 25.036C125.823 25.192 125.253 25.27 124.641 25.27C123.285 25.27 122.091 24.796 121.059 23.848C120.039 22.888 119.529 21.742 119.529 20.41C119.529 19.066 120.039 17.914 121.059 16.954C122.091 15.982 123.285 15.496 124.641 15.496C125.253 15.496 125.817 15.568 126.333 15.712C126.849 15.856 127.215 16 127.431 16.144L127.737 16.36L126.657 18.538C126.261 18.25 125.745 18.106 125.109 18.106ZM138.379 20.824H131.683C131.683 21.472 131.893 21.952 132.313 22.264C132.733 22.576 133.189 22.732 133.681 22.732C134.197 22.732 134.605 22.666 134.905 22.534C135.205 22.39 135.547 22.114 135.931 21.706L138.235 22.858C137.275 24.466 135.679 25.27 133.447 25.27C132.055 25.27 130.861 24.796 129.865 23.848C128.869 22.888 128.371 21.736 128.371 20.392C128.371 19.048 128.869 17.896 129.865 16.936C130.861 15.976 132.055 15.496 133.447 15.496C134.911 15.496 136.099 15.922 137.011 16.774C137.935 17.614 138.397 18.82 138.397 20.392C138.397 20.608 138.391 20.752 138.379 20.824ZM131.773 19.06H135.283C135.211 18.58 135.019 18.214 134.707 17.962C134.407 17.698 134.017 17.566 133.537 17.566C133.009 17.566 132.589 17.704 132.277 17.98C131.965 18.256 131.797 18.616 131.773 19.06Z" fill="#4C516D" fill-opacity="0.9"/>
<path d="M87.0149 10.618C87.3869 10.246 87.8309 10.06 88.3469 10.06C88.8629 10.06 89.3069 10.246 89.6789 10.618C90.0509 10.99 90.2369 11.434 90.2369 11.95C90.2369 12.466 90.0509 12.91 89.6789 13.282C89.3069 13.654 88.8629 13.84 88.3469 13.84C87.8309 13.84 87.3869 13.654 87.0149 13.282C86.6429 12.91 86.4569 12.466 86.4569 11.95C86.4569 11.434 86.6429 10.99 87.0149 10.618ZM86.7089 15.766V25H89.8949V15.766H86.7089Z" fill="#2F80ED"/>
</svg>
