<svg width="44" height="37" viewBox="0 0 44 37" fill="none" xmlns="http://www.w3.org/2000/svg">
<circle cx="21" cy="18" r="16" fill="#2F80ED"/>
<path d="M28.8749 9C21.2511 9 14.9804 14.865 14.3159 22.3185C15.5826 20.532 17.1344 18.813 19.0716 16.8368C19.2156 16.6883 19.4541 16.6853 19.6019 16.8315C19.7496 16.9763 19.7519 17.214 19.6071 17.3618C19.3154 17.6588 19.0191 17.967 18.7214 18.279C18.5511 18.4568 18.3846 18.6338 18.2211 18.8078C18.1911 18.84 18.1611 18.8723 18.1311 18.9053C15.7371 21.4688 14.0256 23.7 12.7828 26.4713C12.6981 26.6602 12.7828 26.8823 12.9711 26.967C13.0213 26.9895 13.0731 27 13.1248 27C13.2681 27 13.4054 26.9175 13.4676 26.7788C13.9101 25.7925 14.4238 24.8775 15.0013 23.9872C20.2393 23.853 25.0071 20.9392 27.5061 16.3028C27.5684 16.1865 27.5653 16.0463 27.4978 15.9323C27.4296 15.8198 27.3073 15.75 27.1754 15.75H25.7864L28.2771 14.3265C28.3559 14.2815 28.4166 14.2087 28.4459 14.1233C28.9799 12.5707 29.2499 10.9732 29.2499 9.37501C29.2499 9.16801 29.0819 9 28.8749 9Z" fill="white"/>
</svg>
